<svg width="70" height="48" viewBox="0 0 70 48" fill="none" xmlns="http://www.w3.org/2000/svg">
<path d="M37.0123 47.5254C36.3203 47.4985 35.627 47.485 34.9362 47.4385C34.6154 47.4165 34.2993 47.321 33.9785 47.2746C33.6183 47.222 33.3942 47.014 33.2472 46.6982C32.8284 45.7964 32.1657 45.0842 31.4761 44.3831C30.7805 43.6771 29.939 43.1803 29.1478 42.6076C28.6224 42.2271 28.0945 41.8404 27.6131 41.406C26.9481 40.8064 26.5831 40.0539 26.648 39.1288C26.6774 38.7238 26.6149 38.3004 26.7068 37.9125C27.051 36.4698 26.4618 35.196 26.0307 33.8929C25.967 33.6983 25.7698 33.5429 25.5469 33.6175C24.8929 33.8378 24.2425 34.0715 23.6031 34.3309C23.2663 34.4668 22.9393 34.6417 22.7237 34.9647C22.4555 35.3674 22.0158 35.5215 21.5847 35.6218C20.2276 35.9388 18.8656 36.0991 17.4877 35.683C15.9788 35.2278 16.1796 35.5704 15.5488 36.4674C15.4557 36.5996 15.3982 36.7562 15.3235 36.9005C14.778 37.9545 14.8115 38.9844 15.4239 39.9902C15.6799 40.4063 15.9616 40.8076 16.2629 41.1919C17.0149 42.1512 17.8037 43.0836 18.5374 44.0564C18.8068 44.4137 19.1167 44.6095 19.5442 44.6621C19.7854 44.6915 20.0267 44.7624 20.268 44.7587C21.1964 44.7428 21.6802 45.3131 21.9741 46.0778C22.1297 46.4817 22.235 46.9258 22.0133 47.3688C21.9154 47.5658 21.7892 47.6894 21.5712 47.7383C20.1651 48.0602 18.7382 48.0063 17.3138 47.9782C16.7724 47.9672 16.3707 47.6857 16.1232 47.2366C15.8428 46.7263 15.4447 46.3642 15.0197 45.975C14.3987 45.4073 13.8182 44.7636 13.4115 44.0001C13.0269 43.2781 12.5456 42.6247 12.0459 41.9786C11.6674 41.4892 11.2559 41.0597 10.744 40.706C10.4132 40.4772 10.1071 40.1885 9.86082 39.8716C9.58283 39.5155 9.50439 39.1215 9.61464 38.621C9.99189 36.9177 10.4353 35.2291 10.788 33.5184C11.0734 32.1357 11.6748 30.8166 12.1451 29.4731C12.2431 29.1941 12.4415 29.0056 12.7244 28.882C13.0955 28.7205 13.4458 28.5089 13.8108 28.3314C14.8544 27.8224 15.6995 27.0454 16.4834 26.2255C17.0443 25.6394 17.3554 24.8612 17.5857 24.0756C17.6469 23.8688 17.5661 23.6755 17.3848 23.5396C17.255 23.4417 17.1263 23.3414 16.9916 23.2497C15.6272 22.3295 14.5225 21.1327 13.4299 19.9201C12.8261 19.2495 12.3337 18.5092 11.8903 17.7286C10.9852 16.1317 9.9772 14.6071 8.72664 13.25C8.07141 12.5391 7.33652 12.0424 6.35546 11.8649C5.71611 11.7487 5.13556 11.8233 4.56848 12.0522C3.9965 12.2822 3.67927 12.7117 3.67805 13.3773C3.67805 13.9206 3.79685 14.426 3.96832 14.9277C4.09938 15.3119 4.23777 15.6949 4.39455 16.0681C4.65666 16.6946 4.49132 17.2563 4.17042 17.802C3.58741 18.7907 2.46916 18.6989 1.7796 18.0259C0.95653 17.2208 0.646654 16.1697 0.459259 15.0721C0.404143 14.7515 0.406604 14.4198 0.333116 14.1054C-0.131085 12.1146 0.537651 10.5043 2.00986 9.18637C2.71902 8.5513 3.58741 8.18054 4.50479 7.94317C4.77792 7.87219 5.07799 7.80486 5.3499 7.84282C6.51592 8.00435 7.69665 8.09363 8.81122 8.5305C9.31091 8.72627 9.76897 8.96858 10.167 9.33318C10.4965 9.63546 10.848 9.91565 11.1947 10.1983C11.861 10.7404 12.4354 11.3547 12.9253 12.0705C13.7521 13.2794 14.6033 14.4774 15.5268 15.6129C16.8606 17.2538 18.5239 18.3588 20.731 18.4212C21.766 18.4506 22.7556 18.1948 23.722 17.8755C24.6515 17.567 25.5788 17.2697 26.5402 17.0739C28.3444 16.7069 30.1362 16.5735 31.9857 16.8219C33.4102 17.014 34.7832 17.3334 36.139 17.7653C36.4831 17.8754 36.809 18.0455 37.1446 18.1838C37.3307 18.2596 37.5169 18.3747 37.7092 18.3882C38.253 18.4285 38.7454 18.6072 39.1986 18.8886C39.506 19.0807 39.7975 19.0477 40.1318 18.9767C40.8851 18.8176 41.6163 18.5092 42.4112 18.6096C44.0182 18.1667 45.6275 17.7286 47.232 17.2746C47.5493 17.1853 47.8052 16.9859 47.9963 16.6995C48.1519 16.4646 48.3441 16.2529 48.534 16.0436C48.5818 15.991 48.6785 15.9825 48.7532 15.9543C48.7924 16.0595 48.8965 16.1978 48.8622 16.2639C48.6516 16.6628 48.9015 17.0911 48.7948 17.4532C48.6859 17.8216 48.3441 18.1153 48.1372 18.4616C47.6938 19.2031 47.4782 20.0351 47.2492 20.8574C47.1965 21.0471 47.2186 21.2612 47.2259 21.4631C47.2284 21.5341 47.2883 21.6026 47.3226 21.6736C47.3619 21.6051 47.428 21.5414 47.4378 21.468C47.6386 20.078 48.4445 19.0024 49.2909 17.9587C49.5481 17.6405 49.6828 17.408 49.4869 16.9932C49.2064 16.3997 49.2921 15.7769 49.689 15.2593C50.1005 14.7221 50.0442 14.032 50.3663 13.4666C50.4692 13.2856 50.3871 12.987 50.3577 12.7459C50.2928 12.2112 50.1103 12.0668 49.5616 12.0326C48.6871 11.9763 47.8946 12.1354 47.1157 12.6003C45.9141 13.3162 45.2368 13.1032 44.6734 11.8539C44.2999 11.0243 43.8038 10.2925 43.2453 9.59507C42.8607 9.11418 42.7382 8.57946 42.8374 7.99334C42.8607 7.85875 42.9942 7.65926 43.1056 7.63725C43.5564 7.5479 43.7536 7.16128 44.0537 6.90061C44.1786 6.79168 44.2533 6.61427 44.1333 6.46502C44.0402 6.34753 43.8957 6.26433 43.7597 6.18968C43.6948 6.1542 43.5993 6.17745 43.5184 6.16643C43.004 6.09668 42.6476 6.22639 42.5643 6.81741C42.5337 7.0352 42.2017 7.0793 42.1001 6.89203C41.9874 6.68282 41.8821 6.45645 41.8429 6.22639C41.7902 5.90702 41.9372 5.65862 42.241 5.54727C44.5142 4.71642 46.4702 3.27987 48.632 2.23733C48.8145 2.14923 48.9786 2.02564 49.1488 1.91429C50.0234 1.33673 50.9811 1.01491 52.0308 1.06875C52.6591 1.10056 53.1098 0.899891 53.5079 0.404317C53.9023 -0.0863617 54.1497 -0.0900296 54.68 0.177947C54.7523 0.214656 54.8209 0.259929 54.892 0.299086C55.3157 0.535248 55.7199 0.903558 56.1682 0.969638C56.6189 1.03571 57.1125 0.789766 57.5926 0.702886C57.867 0.653939 58.1536 0.607444 58.4267 0.636811C58.7746 0.674746 59.0011 0.973312 59.0085 1.31593C59.0122 1.47745 58.9999 1.64142 58.9718 1.80172C58.8615 2.42455 59.1261 2.9189 59.5217 3.35329C59.8794 3.74485 60.2787 4.09604 60.6387 4.48515C61.4948 5.41145 62.3595 6.33162 63.1765 7.29216C63.5978 7.78778 63.8428 8.37997 63.9358 9.05664C64.0584 9.94381 64.0631 10.842 64.187 11.7193C64.4457 13.5487 64.2541 15.3792 64.3499 17.2049C64.3901 17.9892 64.2815 18.7564 64.1282 19.5028C63.9836 20.2101 63.6627 20.8844 63.3847 21.5586C63.2426 21.9024 63.1104 22.2353 63.1165 22.6121C63.141 24.16 63.1495 25.7079 63.1949 27.2558C63.2096 27.7428 63.3566 28.2164 63.6137 28.6435C64.3499 29.861 64.8315 31.2155 65.6715 32.3804C65.9027 32.7023 66.0279 33.1097 66.1627 33.4915C66.4354 34.2636 66.8046 34.9807 67.2415 35.6745C67.5648 36.1872 67.8075 36.7513 68.0917 37.2897C68.4347 37.937 68.7369 38.6112 69.1386 39.2193C69.8981 40.3659 69.946 41.5896 69.6228 42.8548C69.4625 43.4825 69.2012 44.0833 68.9873 44.6976C68.8806 45.0047 68.8474 45.2911 68.9272 45.6385C69.1278 46.5049 68.6672 47.1302 67.9927 47.6013C67.5418 47.9157 66.6328 47.7236 66.1959 47.2586C65.8171 46.8561 65.6357 46.3568 65.5891 45.8221C65.5552 45.4183 65.5769 45.0072 65.6102 44.6021C65.6593 43.9964 65.7462 43.3932 65.805 42.7875C65.8574 42.254 65.8452 41.729 65.5182 41.2616C65.4498 41.1637 65.3789 41.034 65.3847 40.9239C65.43 40.1309 64.8839 39.7761 64.3097 39.4359C64.0989 39.3111 63.9053 39.1521 63.6823 39.0566C62.2946 38.4582 61.0233 37.6433 59.7017 36.9226C58.3814 36.2031 57.0035 35.568 55.862 34.5597C55.3451 34.1033 54.8454 33.6298 54.3322 33.1684C54.2049 33.0534 54.0444 32.9959 53.8876 33.0975C53.1319 33.5857 52.3958 34.0886 52.0271 34.9709C51.7773 35.5704 51.4956 36.1565 51.2126 36.7414C50.6884 37.8268 50.6039 39.0101 50.4643 40.1738C50.392 40.7746 50.4202 41.3864 50.6088 41.9884C50.7656 42.4889 50.8121 43.0224 50.9261 43.5375C51.0852 44.2619 51.3817 44.4981 52.1226 44.3965C52.5514 44.3379 52.9482 44.4015 53.3156 44.5642C53.8325 44.793 54.3334 45.0671 54.8111 45.3681C55.4161 45.7487 55.4553 46.6175 54.8601 47.0262C54.2599 47.4385 53.6316 47.835 52.8355 47.753C52.4313 47.7114 52.021 47.7249 51.6144 47.7065C50.719 47.6661 49.8225 47.6147 48.9467 47.8815C48.5107 48.0148 48.1298 47.8986 47.8518 47.5437C47.2688 46.8022 46.7715 46.0056 46.6674 45.0451C46.6208 44.6229 46.5167 44.2387 46.2546 43.9181C45.8737 43.4507 45.7157 42.9037 45.7096 42.3323C45.6998 41.3937 45.5503 40.4723 45.4549 39.5436C45.3544 38.5757 45.314 37.6017 45.2442 36.6301C45.2295 36.427 45.1988 36.2251 45.1768 36.0232C45.1425 35.7087 45.0029 35.5056 44.6623 35.4395C43.9851 35.3074 43.3127 35.1507 42.639 35.0003C40.9733 34.6282 39.3088 34.2538 37.6431 33.8831C37.4447 33.839 37.2438 33.7925 37.0417 33.7839C36.297 33.7546 35.5951 33.5502 34.9203 33.2602C34.6117 33.1281 34.3079 33.0644 33.976 33.0595C33.5497 33.0522 33.5155 33.2284 33.5963 33.5857C33.7567 34.2966 33.8523 35.0211 33.9686 35.7405C33.9882 35.8593 33.9834 35.9865 33.9686 36.1064C33.8498 36.9887 33.7163 37.8697 33.6036 38.7532C33.5314 39.3185 33.5155 39.8801 33.6637 40.4467C33.8364 41.1099 33.8131 41.811 34.1438 42.4497C34.4916 43.1203 35.0195 43.6171 35.5658 44.0968C35.7336 44.2436 36.0067 44.3183 36.2382 44.3354C36.8935 44.3831 37.5181 44.5275 38.1366 44.7465C38.4343 44.8518 38.7821 44.8052 39.1018 44.8616C39.9665 45.0108 40.416 45.6349 40.3389 46.5306C40.3156 46.7961 40.1919 46.9956 39.9824 47.14C39.6774 47.3504 39.3565 47.5095 38.9658 47.5021C38.313 47.4887 37.6602 47.4985 37.0074 47.4985C37.0074 47.5071 37.0074 47.5156 37.0074 47.5229L37.0123 47.5254ZM36.9339 21.55C37.098 21.5512 37.1813 21.4717 37.1788 21.3053C37.2964 21.2845 37.4385 21.2967 37.5291 21.2355C38.035 20.8917 38.5629 20.8024 39.1446 21.0129C39.2537 21.052 39.386 21.0275 39.5084 21.0349C40.0093 21.0667 40.4172 20.8721 40.5777 20.4035C40.7283 19.9654 41.0554 19.7672 41.4069 19.5665C41.9494 19.2569 42.5484 19.1663 43.1608 19.1272C43.2318 19.1223 43.298 19.0563 43.3666 19.0183C43.3188 18.9767 43.2784 18.9094 43.2232 18.8972C42.6941 18.7736 42.1858 18.8164 41.6776 19.0367C41.1852 19.2508 40.7479 19.5236 40.356 19.8908C40.1845 20.0511 39.9653 20.2236 39.7472 20.2554C39.2242 20.33 38.7625 20.6054 38.215 20.6188C37.7802 20.6298 37.3356 20.7901 37.1666 21.2931C37.0074 21.2967 36.9266 21.3787 36.9216 21.5378C36.7588 21.5464 36.6767 21.6284 36.6889 21.7948C36.3092 22.0187 36.0018 22.2977 35.9553 22.7712C35.8989 22.8092 35.8169 22.836 35.7923 22.8886C35.7691 22.9388 35.8046 23.0172 35.8144 23.082C35.8536 23.0453 35.9124 23.0147 35.9259 22.9707C35.9467 22.9034 35.9357 22.8275 35.9369 22.7553C36.3717 22.5718 36.6509 22.2719 36.673 21.7788C36.8469 21.8008 36.929 21.7188 36.9326 21.5488L36.9339 21.55ZM25.9057 21.2881C25.9878 21.2074 26.0711 21.1267 26.1532 21.0471C26.2928 21.0214 26.419 20.9823 26.3871 20.7962C26.5757 20.7375 26.7766 20.7044 26.9493 20.6152C27.5384 20.3105 28.1018 20.1355 28.8049 20.3276C29.5838 20.5405 29.9684 20.2701 30.3628 19.5078C30.4375 19.3646 30.4522 19.1811 30.549 19.0599C30.6947 18.8751 30.8638 18.6696 31.0695 18.579C31.3586 18.4506 31.6881 18.382 32.0065 18.3563C32.4107 18.3233 32.821 18.3624 33.2277 18.3563C33.2889 18.3563 33.3501 18.2792 33.4102 18.2388C33.3428 18.1459 33.2815 18.0479 33.2068 17.9611C33.186 17.9354 33.1309 17.9341 33.0905 17.9305C31.7823 17.7873 30.6384 18.1581 29.8509 19.2153C29.4822 19.7109 29.1184 19.9201 28.544 19.8626C28.4632 19.854 28.3774 19.8492 28.3002 19.8675C27.5948 20.0351 26.8513 20.1293 26.4091 20.8183C26.2487 20.828 26.1471 20.8893 26.1764 21.0728C26.0086 21.0691 25.9241 21.1462 25.9315 21.3175C25.8641 21.3408 25.6902 21.2575 25.7943 21.4533C25.8311 21.3983 25.869 21.3444 25.9057 21.2893V21.2881ZM22.9699 20.3153C23.0507 20.2346 23.1315 20.1526 23.2124 20.0719C23.9718 19.8063 24.7104 19.4612 25.5542 19.5457C25.6902 19.5592 25.8629 19.4527 25.9805 19.3548C26.6149 18.836 27.2849 18.3967 28.1116 18.2462C28.1655 18.2364 28.2243 18.1251 28.2329 18.0553C28.2365 18.0223 28.1153 17.9329 28.0675 17.9427C27.4356 18.0797 26.7815 18.1875 26.2609 18.6047C25.7343 19.0281 25.128 19.2153 24.4813 19.3046C24.0661 19.3622 23.6986 19.5164 23.3765 19.7708C23.2945 19.8357 23.2712 19.974 23.221 20.078C23.0507 20.0829 22.954 20.1514 22.9932 20.3398C22.9001 20.3313 22.7739 20.286 22.8572 20.4659C22.8952 20.4145 22.9332 20.3643 22.9699 20.3129V20.3153ZM25.188 22.0541C25.1611 22.0774 25.1341 22.0994 25.1072 22.1227L25.1586 22.0272C25.1917 22.0089 25.2297 21.9954 25.2578 21.9722C25.2737 21.9587 25.275 21.9281 25.2824 21.9061L25.1868 22.0541H25.188ZM49.8923 3.91371C50.1765 3.91371 50.4459 3.94063 50.6811 4.14009C51.035 4.44233 51.4086 4.37869 51.803 4.19025C52.0504 4.07156 52.3284 4.01894 52.593 3.93696C52.811 4.29793 53.176 4.09848 53.4712 4.16211C53.7761 4.22696 53.9451 4.49494 53.8312 4.78861C53.7884 4.89997 53.7517 5.04068 53.6647 5.10309C52.9604 5.60723 52.4619 6.46381 51.4319 6.41971C51.389 6.4185 51.3425 6.50784 51.2972 6.55552C51.3278 6.58125 51.3559 6.62528 51.3902 6.63142C52.0063 6.73542 52.5979 6.64858 53.1466 6.34998C53.6855 6.05631 54.1779 5.71735 54.3408 5.06148C54.4082 4.78984 54.5417 4.53532 54.6359 4.26979C54.707 4.06912 54.5955 3.95654 54.4142 3.95043C53.8116 3.93085 53.2078 3.93207 52.604 3.92473C52.3284 3.51236 51.9083 3.41569 51.4539 3.40468C50.8771 3.39 50.3369 3.49645 49.918 3.93941C49.8776 3.98836 49.651 3.88924 49.798 4.0887C49.8298 4.03119 49.8605 3.97245 49.8923 3.91494V3.91371ZM53.0854 7.59322C54.1363 7.67885 54.8625 7.23219 55.3231 6.28512C55.497 5.9266 55.7713 5.6158 55.9869 5.27562C56.0922 5.1092 56.1927 4.92933 56.2417 4.74212C56.2613 4.66992 56.1486 4.54143 56.0677 4.47169C56.0335 4.44232 55.9036 4.47536 55.8558 4.52064C55.7701 4.60017 55.688 4.70173 55.6477 4.81064C55.3022 5.71858 54.6764 6.37567 53.8815 6.91162C53.5973 7.10374 53.2078 7.21139 53.1025 7.61402C52.8196 7.61888 52.5354 7.61766 52.2525 7.63232C52.1765 7.63603 52.1018 7.68621 52.0271 7.7143C52.119 7.75226 52.2121 7.82323 52.3039 7.82323C52.5832 7.82323 52.8833 7.8624 53.0878 7.59322H53.0854ZM41.3726 22.3111C41.4743 22.2475 41.5943 22.201 41.6763 22.1178C42.4553 21.3322 43.2453 20.5834 44.4493 20.5185C44.6208 20.5087 44.8804 20.3435 44.9306 20.1942C45.1903 19.4209 45.7267 18.8996 46.3624 18.4444C46.4016 18.4163 46.4151 18.2841 46.3857 18.2486C46.3404 18.196 46.2461 18.174 46.1701 18.1654C46.0918 18.1556 45.9998 18.1569 45.93 18.1899C45.4071 18.4358 44.9098 18.7295 44.6795 19.2924C44.5129 19.6998 44.2459 19.9311 43.8344 20.0939C42.8717 20.4756 42.1013 21.1389 41.4166 21.9012C41.342 21.9832 41.3309 22.1227 41.2905 22.2353C40.7442 22.5522 40.4748 23.0857 40.2188 23.6253C40.1967 23.6718 40.2616 23.7599 40.2862 23.8284C40.3229 23.8138 40.3768 23.8088 40.3939 23.782C40.7087 23.2839 41.1815 22.8911 41.3701 22.3099L41.3726 22.3111ZM36.9645 19.208C37.2364 19.2569 37.3148 19.2753 37.3956 19.2826C37.4312 19.2863 37.4728 19.2716 37.5034 19.252C37.5365 19.23 37.5867 19.1859 37.5806 19.1639C37.5622 19.0941 37.5377 18.9865 37.4875 18.9693C36.8371 18.7356 36.1598 18.7197 35.6736 19.2349C35.1371 19.8051 34.5222 20.0755 33.7726 20.1955C33.1345 20.297 32.4841 20.4279 31.8902 20.6702C30.6004 21.1964 29.4687 21.9966 28.4313 22.9229C28.4019 22.9486 28.4423 23.0612 28.4644 23.1285C28.4705 23.1493 28.5378 23.1738 28.555 23.1628C28.7926 23.0074 29.0375 22.8605 29.258 22.6844C29.9623 22.1239 30.718 21.6577 31.5227 21.2502C32.162 20.9272 32.8222 20.746 33.5228 20.8232C34.4488 20.9235 35.2032 20.7448 35.6883 19.8614C36.0031 19.2875 36.5726 19.2263 36.9633 19.208H36.9645ZM56.9386 29.1329C56.8627 29.0632 56.8149 28.986 56.75 28.9665C56.6826 28.9469 56.565 28.9542 56.5258 28.9983C56.0274 29.5783 55.5264 30.1583 55.0499 30.7567C54.6788 31.2228 54.7229 31.4749 55.1846 31.8861C55.3231 32.0097 55.4688 32.028 55.6146 31.9081C56.4915 31.1862 56.6691 30.1388 56.9386 29.1316V29.1329ZM52.5465 13.0543C53.4026 13.2292 54.2452 13.6723 55.116 13.1668C55.1724 13.1338 55.2753 13.1914 55.3537 13.184C55.7199 13.1498 55.9098 13.0164 55.9685 12.7203C56.0776 12.1672 56.1829 11.6129 56.2588 11.0548C56.2772 10.919 56.1976 10.7502 56.1155 10.6278C56.0469 10.5251 55.8546 10.771 55.8228 11.0598C55.791 11.3412 55.7811 11.6239 55.7444 11.9041C55.7138 12.139 55.546 12.2467 55.3231 12.2577C55.1626 12.265 55.0009 12.2406 54.8393 12.2332C54.6163 12.2234 54.4437 12.2993 54.3812 12.5318C54.2918 12.8683 54.0211 12.9491 53.7308 12.9772C53.3377 13.0164 52.942 13.0286 52.5465 13.0531V13.0543ZM28.1043 33.5869C28.3333 33.4915 28.5379 33.4462 28.6934 33.3336C29.0865 33.0473 29.4614 32.7377 29.8313 32.422C29.8937 32.3694 29.8912 32.2397 29.9194 32.1468C29.841 32.1308 29.7565 32.088 29.6855 32.1027C29.0952 32.2299 28.5011 32.3498 27.9193 32.5089C27.6511 32.5823 27.5274 32.9249 27.6707 33.2162C27.7454 33.3679 27.9463 33.4584 28.1031 33.5869H28.1043ZM51.8802 8.83277C51.7307 8.8768 51.5053 8.94042 51.2812 9.01261C51.2567 9.01997 51.2445 9.07994 51.2359 9.11661C51.2298 9.1472 51.2359 9.2096 51.2396 9.2096C51.7197 9.25613 52.1998 9.31238 52.6824 9.33318C52.8355 9.34054 52.9922 9.25734 53.1478 9.21574C52.9959 9.10931 52.8575 8.95386 52.6897 8.90618C52.4619 8.84128 52.2108 8.85722 51.879 8.83149L51.8802 8.83277ZM55.7444 8.02272C55.666 7.97133 55.5729 7.88077 55.546 7.89786C55.0021 8.2368 54.4657 8.58803 53.9304 8.9392C53.928 8.94042 53.9476 8.99302 53.9672 9.00774C53.9978 9.02976 54.0468 9.06278 54.0701 9.05178C54.5784 8.81805 55.0879 8.58803 55.5852 8.33107C55.6697 8.28698 55.6942 8.12672 55.7444 8.02272ZM57.6857 8.88288C57.6661 8.68224 57.6759 8.63085 57.6551 8.6039C57.611 8.54886 57.5498 8.47053 57.4971 8.47174C57.4444 8.47174 57.3501 8.55251 57.3452 8.60512C57.3134 8.92326 57.2987 9.2439 57.284 9.56326C57.2828 9.59872 57.3146 9.63667 57.3305 9.67334C57.3893 9.6281 57.4824 9.59264 57.502 9.53389C57.5877 9.272 57.6526 9.00282 57.6857 8.88166V8.88288Z" fill="#FA3812"/>
</svg>
